<svg xmlns="http://www.w3.org/2000/svg" xmlns:xlink="http://www.w3.org/1999/xlink" width="4000" zoomAndPan="magnify" viewBox="0 0 3000 2999.999989" height="4000" preserveAspectRatio="xMidYMid meet" version="1.0"><path fill="#000000" d="M 2599.363281 2465.417969 C 2599.363281 2465.417969 2660.492188 2433.25 2730.453125 2471.21875 C 2730.453125 2471.21875 2661.050781 2418.824219 2595.863281 2430.058594 C 2595.863281 2430.058594 2627.136719 2345.039062 2762.710938 2332.175781 C 2762.710938 2332.175781 2650.152344 2298.96875 2564.898438 2361.871094 C 2564.898438 2361.871094 2698.855469 2144.558594 2656.214844 1973.21875 C 2656.214844 1973.21875 2609.691406 2061.503906 2531.792969 2076.988281 C 2531.792969 2076.988281 2629.9375 1893.222656 2588.085938 1784.472656 C 2546.234375 1675.707031 2314.613281 1515.761719 2314.613281 1515.761719 C 2314.613281 1515.761719 2299.363281 1633.886719 2188.886719 1744.453125 C 2188.886719 1744.453125 2249.617188 1580.890625 2234.003906 1455.558594 C 2218.375 1330.210938 1789.011719 1199.210938 1789.011719 1199.210938 C 1789.011719 1199.210938 1785.980469 1347.347656 1686.882812 1414.144531 C 1686.882812 1414.144531 1728.96875 1191.050781 1659.917969 1155.703125 C 1590.863281 1120.371094 1151.746094 958.039062 1072.339844 815.082031 L 1050.085938 1038.839844 C 1050.085938 1038.839844 1060.386719 888.265625 961.742188 797.550781 C 863.085938 706.832031 609.609375 572.476562 588.148438 399.886719 L 552.992188 576.8125 L 536.367188 379.234375 C 536.367188 379.234375 286.039062 201.429688 331.832031 0 C 331.832031 0 119.984375 270.6875 310.0625 807.246094 L 639.828125 951.125 L 363.003906 892.542969 C 363.003906 892.542969 531.050781 1268.160156 1058.816406 1309.953125 C 1058.816406 1309.953125 945.378906 1338.429688 718.828125 1268.863281 C 718.828125 1268.863281 909.300781 1701.285156 1593.808594 1738.097656 L 1246.507812 1752.804688 C 1246.507812 1752.804688 1498.082031 2223.957031 2072.769531 2129.472656 C 2072.769531 2129.472656 1946.058594 2220.847656 1802.769531 2196.472656 C 1802.769531 2196.472656 1982.8125 2416.082031 2328.691406 2309.765625 C 2328.691406 2309.765625 2273.347656 2327.945312 2266.65625 2395.222656 C 2266.65625 2395.222656 2330.902344 2322.917969 2400.042969 2342.519531 C 2400.042969 2342.519531 2347.996094 2371.640625 2364.34375 2445.4375 C 2364.34375 2445.4375 2381.335938 2380.574219 2452.222656 2382.789062 L 2879.75 3000 C 2879.75 3000 2862.65625 2907.070312 2825.449219 2839.878906 C 2788.242188 2772.683594 2469.449219 2253.632812 1967.136719 1867.648438 C 1464.828125 1481.660156 917.285156 1197.304688 797.402344 955.371094 C 797.402344 955.371094 1006.140625 1186.554688 1426.113281 1429.601562 C 1846.082031 1672.632812 2380.152344 2102.972656 2599.363281 2465.417969 " fill-opacity="1" fill-rule="nonzero"/></svg>